<svg xmlns="http://www.w3.org/2000/svg" viewBox="0 0 1024 1024" role="img" aria-labelledby="title desc">
  <title id="title">Moonweave Systems avatar</title>
  <desc id="desc">A restrained systems kernel mark with a command line and signal pins.</desc>
  <rect width="1024" height="1024" fill="#f7f8fa"/>
  <circle cx="512" cy="512" r="352" fill="#ffffff" stroke="#d9dee8" stroke-width="18"/>
  <path d="M302 382h-82M302 512h-110M302 642h-82M722 382h82M722 512h110M722 642h82M382 302v-82M512 302v-110M642 302v-82M382 722v82M512 722v110M642 722v82" stroke="#b9c0cc" stroke-width="18" stroke-linecap="round"/>
  <rect x="302" y="302" width="420" height="420" rx="76" fill="#ffffff" stroke="#1f2937" stroke-width="28"/>
  <rect x="378" y="378" width="268" height="268" rx="44" fill="#f9fafb" stroke="#c8ced8" stroke-width="12"/>
  <path d="M418 522h116" stroke="#1f2937" stroke-width="28" stroke-linecap="round"/>
  <path d="M554 452l76 60-76 60" fill="none" stroke="#2f5f9f" stroke-width="28" stroke-linecap="round" stroke-linejoin="round"/>
  <circle cx="512" cy="512" r="18" fill="#2f5f9f"/>
</svg>
