<svg xmlns="http://www.w3.org/2000/svg" viewBox="0 0 1024 1024" role="img" aria-labelledby="title desc">
  <title id="title">Moonweave Systems avatar</title>
  <desc id="desc">A premium systems kernel mark with command path and signal pins.</desc>
  <defs>
    <linearGradient id="paper" x1="160" y1="120" x2="880" y2="900" gradientUnits="userSpaceOnUse">
      <stop offset="0" stop-color="#ffffff"/>
      <stop offset="1" stop-color="#edf3f8"/>
    </linearGradient>
    <linearGradient id="panel" x1="302" y1="300" x2="724" y2="724" gradientUnits="userSpaceOnUse">
      <stop offset="0" stop-color="#17243a"/>
      <stop offset="1" stop-color="#101827"/>
    </linearGradient>
  </defs>
  <rect width="1024" height="1024" fill="#eef2f6"/>
  <circle cx="512" cy="512" r="372" fill="url(#paper)" stroke="#cfd6e2" stroke-width="20"/>
  <path d="M292 380h-86M292 512h-116M292 644h-86M732 380h86M732 512h116M732 644h86M380 292v-86M512 292v-116M644 292v-86M380 732v86M512 732v116M644 732v86" stroke="#aeb7c5" stroke-width="20" stroke-linecap="round"/>
  <rect x="292" y="292" width="440" height="440" rx="82" fill="url(#panel)"/>
  <rect x="362" y="362" width="300" height="300" rx="48" fill="#ffffff" opacity="0.94"/>
  <path d="M414 522h116" stroke="#111827" stroke-width="32" stroke-linecap="round"/>
  <path d="M552 446l86 66-86 66" fill="none" stroke="#2f5f9f" stroke-width="34" stroke-linecap="round" stroke-linejoin="round"/>
  <path d="M420 602c84-46 142-44 204 6" fill="none" stroke="#2f6f5f" stroke-width="20" stroke-linecap="round"/>
  <circle cx="512" cy="512" r="20" fill="#2f5f9f"/>
  <circle cx="420" cy="602" r="15" fill="#ffffff" stroke="#2f6f5f" stroke-width="8"/>
  <circle cx="624" cy="608" r="15" fill="#ffffff" stroke="#2f6f5f" stroke-width="8"/>
</svg>
